<svg xmlns="http://www.w3.org/2000/svg" version="1.1" xmlns:xlink="http://www.w3.org/1999/xlink" xmlns:svgjs="http://svgjs.com/svgjs" width="1440" height="560" preserveAspectRatio="none" viewBox="0 0 1440 560"><g mask="url(&quot;#SvgjsMask1000&quot;)" fill="none"><rect width="1440" height="560" x="0" y="0" fill="#1e3266"></rect><path d="M1488 560L0 560 L0 301.99Q84.09 266.08, 120 350.17Q186.71 296.88, 240 363.59Q265.06 268.65, 360 293.71Q402.56 264.27, 432 306.84Q478.76 233.6, 552 280.36Q617.34 225.69, 672 291.03Q753.75 252.78, 792 334.54Q815.85 286.38, 864 310.23Q888 262.23, 936 286.22Q1021.55 251.77, 1056 337.33Q1107.22 268.55, 1176 319.78Q1261.58 285.36, 1296 370.94Q1311.84 266.78, 1416 282.62Q1460.34 254.96, 1488 299.3z" fill="#182f5d"></path><path d="M1512 560L0 560 L0 397.88Q76.58 354.46, 120 431.04Q172.39 363.44, 240 415.83Q265.19 369.02, 312 394.21Q353.38 363.59, 384 404.97Q432.18 333.15, 504 381.33Q590.08 347.41, 624 433.5Q644.77 334.27, 744 355.04Q787.58 326.62, 816 370.2Q857.72 339.91, 888 381.63Q962.43 336.06, 1008 410.49Q1039 321.49, 1128 352.49Q1173.81 326.3, 1200 372.11Q1255.38 355.49, 1272 410.86Q1325.33 344.19, 1392 397.51Q1443.38 328.89, 1512 380.28z" fill="#25467d"></path><path d="M1512 560L0 560 L0 425.58Q44.2 397.78, 72 441.98Q138.87 436.85, 144 503.71Q154.47 442.18, 216 452.65Q241.5 406.15, 288 431.66Q344.07 415.74, 360 471.81Q441.53 433.34, 480 514.86Q486.24 449.1, 552 455.34Q622.82 406.16, 672 476.98Q715.28 448.26, 744 491.55Q812.5 440.06, 864 508.56Q871.96 444.52, 936 452.48Q958.38 402.86, 1008 425.24Q1075.65 372.89, 1128 440.54Q1186.84 427.38, 1200 486.21Q1244.81 459.01, 1272 503.82Q1309.24 421.06, 1392 458.3Q1438.42 384.73, 1512 431.15z" fill="#356cb1"></path><path d="M1488 560L0 560 L0 526.86Q45.88 500.74, 72 546.62Q149.69 504.31, 192 581.99Q218.68 536.67, 264 563.35Q271.74 499.09, 336 506.82Q377.15 475.97, 408 517.11Q464.44 501.55, 480 557.99Q531.81 489.8, 600 541.6Q623.56 493.16, 672 516.72Q701.14 473.86, 744 503Q823.37 462.37, 864 541.74Q908.7 514.44, 936 559.14Q973.71 476.85, 1056 514.56Q1124.68 463.24, 1176 531.92Q1260.7 496.63, 1296 581.33Q1320.26 533.59, 1368 557.85Q1407.91 477.76, 1488 517.67z" fill="white"></path></g><defs><mask id="SvgjsMask1000"><rect width="1440" height="560" fill="#ffffff"></rect></mask></defs></svg>