<?xml version="1.0" standalone="no"?>
<!DOCTYPE svg PUBLIC "-//W3C//DTD SVG 20010904//EN"
 "http://www.w3.org/TR/2001/REC-SVG-20010904/DTD/svg10.dtd">
<svg version="1.0" xmlns="http://www.w3.org/2000/svg"
 width="50.000000pt" height="50.000000pt" viewBox="0 0 50.000000 50.000000"
 preserveAspectRatio="xMidYMid meet">

<g transform="translate(0.000000,50.000000) scale(0.100000,-0.100000)"
fill="#000000" stroke="none">
<path d="M154 356 c-19 -19 -34 -43 -34 -55 0 -12 -6 -21 -15 -21 -9 0 -27
-11 -40 -25 -33 -32 -33 -78 0 -110 23 -24 28 -25 170 -25 160 0 192 8 213 55
32 70 -15 145 -92 145 -14 0 -39 15 -59 35 -48 48 -95 49 -143 1z m119 -6 c14
-11 28 -29 32 -39 5 -16 13 -18 45 -14 32 5 43 1 64 -20 34 -34 34 -79 1 -112
-23 -24 -28 -25 -170 -25 -132 0 -147 2 -165 20 -25 25 -25 55 0 80 11 11 29
20 40 20 15 0 20 7 20 26 0 33 50 84 83 84 13 0 36 -9 50 -20z"/>
</g>
</svg>
